<?xml version="1.0" standalone="no"?><!DOCTYPE svg PUBLIC "-//W3C//DTD SVG 1.1//EN" "http://www.w3.org/Graphics/SVG/1.1/DTD/svg11.dtd"><svg t="1509434171826" class="icon" style="" viewBox="0 0 1031 1024" version="1.1" xmlns="http://www.w3.org/2000/svg" p-id="6379" xmlns:xlink="http://www.w3.org/1999/xlink" width="64.4375" height="64"><defs><style type="text/css"></style></defs><path d="M516.400561 0C233.631202 0 4.423057 229.218528 4.423057 512.003461c0 282.778011 229.209876 511.996539 511.977504 511.996539 282.767628 0 511.977504-229.218528 511.977504-511.996539C1028.378065 229.218528 799.168189 0 516.400561 0L516.400561 0zM798.283924 671.572684c-13.222449 12.345105-35.922629-1.098842-57.743736-31.293648-9.472541 25.565823-21.815916 49.145078-36.142398 70.30861 30.854111 11.019572 50.69384 28.213428 50.69384 47.606699 0 33.499985-59.287307 60.609379-132.46156 60.609379-43.418984 0-81.767719-9.474271-106.011471-24.243752-24.018792 14.76948-62.587295 24.243752-106.00628 24.243752-73.174253 0-132.46156-27.109394-132.46156-60.609379 0-19.173502 19.837999-36.587126 50.69384-47.606699-14.546251-21.158341-26.669857-44.741056-36.147589-70.30861-21.815916 29.969845-44.516096 43.638753-57.743736 31.293648-18.071199-16.967165-11.23415-76.918969 15.648554-133.785362 6.172553-13.00268 12.782912-24.683289 19.61477-34.823787 3.744717-165.302239 112.62183-297.983567 246.182232-297.983567l0.439537 0c133.560402 0 242.437516 132.46156 246.182232 297.983567 6.830128 10.140499 13.447409 21.821107 19.61477 34.823787C809.306957 594.653715 816.362045 654.605519 798.283924 671.572684L798.283924 671.572684zM798.283924 671.572684" p-id="6380" fill="#ffffff"></path></svg>