<?xml version="1.0" standalone="no"?><!DOCTYPE svg PUBLIC "-//W3C//DTD SVG 1.1//EN" "http://www.w3.org/Graphics/SVG/1.1/DTD/svg11.dtd"><svg t="1509434197819" class="icon" style="" viewBox="0 0 1024 1024" version="1.1" xmlns="http://www.w3.org/2000/svg" p-id="8022" xmlns:xlink="http://www.w3.org/1999/xlink" width="64" height="64"><defs><style type="text/css"></style></defs><path d="M512 1024C229.228089 1024 0 794.771911 0 512S229.228089 0 512 0s512 229.228089 512 512-229.228089 512-512 512z m284.034844-447.601778c0-78.9504-78.882133-143.291733-167.480888-143.291733-93.809778 0-167.697067 64.341333-167.697067 143.280355 0 79.075556 73.887289 143.280356 167.708444 143.280356 19.626667 0 39.435378-4.960711 59.164445-9.898667l54.0672 29.650489-14.825245-49.345422c39.571911-29.730133 69.063111-69.154133 69.063111-113.686756zM616.083911 422.491022c6.394311 0 12.708978 0.466489 18.989511 1.171911-17.066667-79.553422-102.001778-138.660978-198.940444-138.660977-108.384711 0-197.176889 73.978311-197.176889 167.924622 0 54.215111 29.548089 98.747733 78.904889 133.279289l-19.717689 59.392 68.926578-34.6112c24.655644 4.892444 44.4416 9.921422 69.063111 9.921422 6.178133 0 12.322133-0.3072 18.397866-0.796445a147.2512 147.2512 0 0 1-6.075733-41.358222c0-86.266311 73.966933-156.2624 167.6288-156.2624z m-41.892978 129.183289c-9.819022 0-19.729067-9.784889-19.729066-19.7632 0-9.8304 9.898667-19.740444 19.729066-19.740444 14.904889 0 24.6784 9.898667 24.6784 19.740444 0 9.978311-9.762133 19.7632-24.689777 19.7632z m108.452978 0c-9.750756 0-19.592533-9.784889-19.592533-19.7632 0-9.8304 9.841778-19.740444 19.592533-19.740444 14.768356 0 24.6784 9.898667 24.6784 19.740444 0 9.978311-9.898667 19.7632-24.689778 19.7632zM510.065778 368.969956c14.848 0 24.689778 9.784889 24.689778 24.632888 0 14.791111-9.841778 24.712533-24.689778 24.712534-14.779733 0-29.604978-9.910044-29.604978-24.712534 0-14.848 14.825244-24.632889 29.604978-24.632888z m-137.989689 49.345422c-14.779733 0-29.696-9.910044-29.696-24.712534 0-14.848 14.916267-24.632889 29.696-24.632888s24.610133 9.784889 24.610133 24.632888c0 14.802489-9.8304 24.712533-24.610133 24.712534z" p-id="8023" fill="#ffffff"></path></svg>