<?xml version="1.0" standalone="no"?><!DOCTYPE svg PUBLIC "-//W3C//DTD SVG 1.1//EN" "http://www.w3.org/Graphics/SVG/1.1/DTD/svg11.dtd"><svg t="1509504201525" class="icon" style="" viewBox="0 0 1024 1024" version="1.1" xmlns="http://www.w3.org/2000/svg" p-id="3216" xmlns:xlink="http://www.w3.org/1999/xlink" width="64" height="64"><defs><style type="text/css"></style></defs><path d="M511.897 0c-282.713 0-511.897 229.185-511.897 511.9 0 282.709 229.185 511.894 511.897 511.894s511.894-229.185 511.894-511.894c0-282.715-229.181-511.9-511.894-511.9zM464.433 767.042c-130.831 0-264.564-63.404-264.564-167.69 0-54.521 34.542-117.569 94.030-177.068 79.431-79.409 172.060-115.582 206.896-80.724 15.371 15.349 16.859 41.947 6.98 73.693-5.15 15.993 15.009 7.137 15.009 7.172 64.203-26.88 120.215-28.464 140.687 0.788 10.925 15.588 9.879 37.447-0.189 62.778-4.657 11.67 1.433 13.478 10.314 16.144 36.176 11.215 76.439 38.341 76.439 86.141-0.001 79.115-114.089 178.766-285.601 178.766zM701.286 435.449c4.231-13.072 1.58-27.973-8.284-38.907-9.855-10.913-24.419-15.054-37.851-12.214v-0.025c-11.205 2.438-22.247-4.752-24.65-15.947-2.409-11.241 4.749-22.294 15.98-24.688 27.477-5.842 57.245 2.652 77.402 25.015 20.199 22.361 25.602 52.822 16.967 79.543-3.525 10.94-15.244 16.896-26.169 13.399-10.922-3.536-16.895-15.27-13.374-26.181h-0.020zM822.412 474.565c-0.007 0.022-0.007 0.070-0.007 0.093-4.11 12.674-17.731 19.615-30.399 15.513-12.719-4.106-19.668-17.697-15.564-30.402l-0.007-0.010c12.599-39.001 4.609-83.492-24.807-116.109-29.443-32.621-72.857-45.081-112.974-36.562-13.049 2.782-25.881-5.547-28.662-18.583-2.793-13.024 5.524-25.861 18.573-28.654h0.025c56.389-11.99 117.481 5.516 158.901 51.438 41.431 45.873 52.599 108.413 34.922 163.274z" p-id="3217" fill="#ffffff"></path><path d="M640.537 578.311c-6.768-68.515-96.89-115.706-201.299-105.383-104.387 10.323-183.548 74.239-176.767 142.767 6.782 68.546 96.9 115.737 201.298 105.434 104.411-10.329 183.539-74.251 176.767-142.818zM530.835 634.57c-21.305 48.19-82.587 73.883-134.575 57.116-50.193-16.199-71.442-65.757-49.466-110.402 21.578-43.772 77.728-68.53 127.406-55.606 51.414 13.289 77.649 61.788 56.635 108.892z" p-id="3218" fill="#ffffff"></path><path d="M424.605 597.858c-16.165-6.777-37.062 0.191-47.037 15.834-10.099 15.709-5.361 34.42 10.693 41.729 16.286 7.436 37.908 0.377 48.009-15.734 9.915-16.269 4.694-34.858-11.662-41.829z" p-id="3219" fill="#ffffff"></path><path d="M464.449 581.34c-6.203-2.462-13.959 0.518-17.596 6.62-3.534 6.133-1.584 13.117 4.633 15.675 6.324 2.602 14.395-0.402 18.047-6.642 3.485-6.287 1.219-13.349-5.083-15.654z" p-id="3220" fill="#ffffff"></path></svg>