<?xml version="1.0" standalone="no"?><!DOCTYPE svg PUBLIC "-//W3C//DTD SVG 1.1//EN" "http://www.w3.org/Graphics/SVG/1.1/DTD/svg11.dtd"><svg t="1509434151901" class="icon" style="" viewBox="0 0 1024 1024" version="1.1" xmlns="http://www.w3.org/2000/svg" p-id="5658" xmlns:xlink="http://www.w3.org/1999/xlink" width="64" height="64"><defs><style type="text/css"></style></defs><path d="M511.468904 64.501036c-247.136633 0-447.480544 200.343911-447.480544 447.480544s200.343911 447.480544 447.480544 447.480544 447.480544-200.343911 447.480544-447.480544S758.605537 64.501036 511.468904 64.501036zM265.372973 332.988953l492.208235 0c1.406023 0 2.622734 0.564865 3.977591 0.810459L511.477091 542.162974 261.415848 333.799412C262.770705 333.546655 263.995603 332.988953 265.372973 332.988953zM242.979964 668.589384 242.979964 355.366613c0-2.384303 0.688685-4.529153 1.37737-6.681166l177.339987 147.773601L244.096391 674.052816C243.654322 672.263054 242.979964 670.545946 242.979964 668.589384zM757.587348 690.973184 265.372973 690.973184c-1.906419 0-3.65218-0.644683-5.41329-1.109264l178.99979-178.991604 65.357544 54.458309c2.072195 1.746784 4.623297 2.586918 7.160073 2.586918 2.557242 0 5.094018-0.840134 7.144724-2.586918l65.415872-54.486962L763.073292 689.864944C761.276367 690.336688 759.529583 690.973184 757.587348 690.973184zM779.957845 668.595524c0 1.935072-0.630357 3.659343-1.086751 5.449106L601.328491 496.466212l177.275519-147.759275c0.710175 2.137687 1.354857 4.311189 1.354857 6.659677L779.958868 668.595524z" p-id="5659" fill="#ffffff"></path></svg>