<?xml version="1.0" standalone="no"?><!DOCTYPE svg PUBLIC "-//W3C//DTD SVG 1.1//EN" "http://www.w3.org/Graphics/SVG/1.1/DTD/svg11.dtd"><svg t="1509504366420" class="icon" style="" viewBox="0 0 1025 1024" version="1.1" xmlns="http://www.w3.org/2000/svg" p-id="5610" xmlns:xlink="http://www.w3.org/1999/xlink" width="64.0625" height="64"><defs><style type="text/css"></style></defs><path d="M512.000015 0c-282.767368 0-512.000015 229.242887-512.000015 512.000015 0 282.828808 229.232647 512.000015 512.000015 512.000015 282.828808 0 512.000015-229.171207 512.000015-512.000015C1024.000031 229.242887 794.828824 0 512.000015 0zM755.425303 620.195859c0 54.097922-26.183681 81.141762-81.141762 81.141762L349.71649 701.337621c-54.087682 0-81.141762-27.043841-81.141762-81.141762L268.574728 403.814412c0-54.097922 28.723201-81.141762 81.141762-81.141762l324.56705 0c54.958082 0 81.141762 27.914241 81.141762 81.141762L755.425303 620.195859z" p-id="5611" fill="#ffffff"></path><path d="M667.95522 409.036812 512.102415 523.765776 356.311051 409.036812l63.610882 99.051523c-0.26624 0.21504-0.64512 0.32768-0.9216 0.59392l-68.055042 106.291203 106.291203-68.055042c0.26624-0.27648 0.32768-0.64512 0.59392-0.9216l35.543041 35.543041c5.30432 5.30432 12.22656 7.89504 19.148801 7.89504s13.84448-2.65216 19.148801-7.89504c0.70656-0.70656 0.9728-1.67936 1.62816-2.53952l32.890881-32.839681 106.833923 68.587522-68.587522-106.833923L667.95522 409.036812z" p-id="5612" fill="#ffffff"></path></svg>