<?xml version="1.0" standalone="no"?><!DOCTYPE svg PUBLIC "-//W3C//DTD SVG 1.1//EN" "http://www.w3.org/Graphics/SVG/1.1/DTD/svg11.dtd"><svg t="1509508108358" class="icon" style="" viewBox="0 0 1024 1024" version="1.1" xmlns="http://www.w3.org/2000/svg" p-id="1900" xmlns:xlink="http://www.w3.org/1999/xlink" width="64" height="64"><defs><style type="text/css"></style></defs><path d="M511.999488 510.976694m-505.005702 0a505.005702 505.005702 0 1 0 1010.011404 0 505.005702 505.005702 0 1 0-1010.011404 0Z" fill="#4A77A5" p-id="1901"></path><path d="M405.120272 324.655148l-0.686638-4.875031 287.089577-42.764989 0.685615 4.87503z" fill="#FFFFFF" p-id="1902"></path><path d="M388.881426 345.027128l-1.588171-40.341801 319.449589-48.042179 5.67321 40.342824z" fill="#FFFFFF" p-id="1903"></path><path d="M407.166885 432.097182l-0.686639-4.875031 287.089578-42.764989 0.685615 4.876054z" fill="#FFFFFF" p-id="1904"></path><path d="M390.928039 452.469162l-1.588171-40.3418 319.449589-48.04218 5.673209 40.342824z" fill="#FFFFFF" p-id="1905"></path><path d="M406.410662 313.99946l1.534959 398.225747M424.325683 313.953412l1.553379 398.22984-35.815717 0.139169-1.553379-398.228816z" fill="#FFFFFF" p-id="1906"></path><path d="M683.374624 695.471638l-1.534959-434.990069 35.815717-5.886057 1.534959 440.766632zM333.105099 803.551192c-50.921763 0-92.349291-41.427528-92.349291-92.349291s41.427528-92.349291 92.349291-92.349291c50.921763 0 92.350314 41.427528 92.350314 92.349291s-41.428551 92.349291-92.350314 92.349291z m0-148.882865c-31.172977 0-56.533574 25.360598-56.533574 56.533574s25.360598 56.533574 56.533574 56.533574 56.534598-25.360598 56.534597-56.533574-25.362644-56.533574-56.534597-56.533574z" fill="#FFFFFF" p-id="1907"></path><path d="M626.986359 787.765671c-50.921763 0-92.349291-41.427528-92.349291-92.349291s41.427528-92.349291 92.349291-92.349291 92.349291 41.427528 92.349291 92.349291-41.427528 92.349291-92.349291 92.349291z m0-148.882866c-31.172977 0-56.533574 25.360598-56.533574 56.533575s25.360598 56.533574 56.533574 56.533574 56.533574-25.360598 56.533574-56.533574-25.360598-56.533574-56.533574-56.533575z" fill="#FFFFFF" p-id="1908"></path></svg>